# generated from PmQm by Jehee Lee
:FULLY-SPECIFIED
:DEGREES
222
root 131.8086979 19.2856 -85.96042787 45.75262459 57.32703372 -2.367186309
RightUpLeg -24.15593214 4.285053494 -9.786706165
RightLeg 84.78129639 0.5945114755 -0.6960748948
RightFoot -14.06362664 13.03993413 -2.972711923
RightToes 1.74622e-010 -3.18055e-015 8.94531e-016
Spine 49.3508 -2.77196 1.14732
Spine1 -16.0279 -1.94694 -12.107
HEad -66.2628 0.562993 12.2758
LeftShoulder1 0 -2.69403e-036 -1.28585e-037
LeftArm 27.9117 -2.97278 -86.3457
LeftForeArm -2.18776 -24.3879 18.1475
LeftHand -3.36795 -0.67164 41.2297
RightShoulder -2.48481e-017 0 -8.08114e-019
RightArm -6.48564 40.008 92.0761
RightForeArm 15.6411 2.15148 -0.635609
RightHand 7.57474 -20.3238 -41.0068
LeftUpLeg -52.87647839 -8.251366107 8.566285682
LeftLeg 113.9685642 0 0
LeftFoot 9.360341992 -26.88958197 2.593126263
LeftToes 4.94765e-010 2.02697e-011 4.00889e-011
223
root 132.660752 19.5985 -85.44020664 43.19932351 55.95509183 -5.901179268
RightUpLeg -28.11344027 5.558657459 -9.551666582
RightLeg 90.53437105 1.010227018 -1.727575359
RightFoot -11.66183023 13.30215524 -2.510753186
RightToes 1.74622e-010 -3.18055e-015 8.94531e-016
Spine 49.377 -2.19941 1.51426
Spine1 -15.7065 -1.07506 -12.749
HEad -66.1122 1.51038 11.0594
LeftShoulder1 0 -2.69403e-036 -1.28585e-037
LeftArm 20.4856 -5.05012 -84.8623
LeftForeArm 2.55568 -29.8645 21.3428
LeftHand -3.27794 -0.64153 40.4157
RightShoulder -2.48481e-017 0 -8.08114e-019
RightArm -5.67993 38.4684 94.3499
RightForeArm 16.7946 1.86891 -0.121356
RightHand 8.08934 -20.8165 -42.6478
LeftUpLeg -49.2418223 -7.012062454 8.680323425
LeftLeg 110.608879 0 0
LeftFoot 9.140763998 -27.65721412 1.727116167
LeftToes 4.94765e-010 2.02697e-011 4.00889e-011
224
root 133.5195118 19.8392 -84.92620096 41.33916164 55.27433834 -8.014542088
RightUpLeg -32.00041742 5.634008345 -9.64784724
RightLeg 97.73508156 1.579848883 -2.851372371
RightFoot -12.34070693 13.64818357 -3.007905159
RightToes 1.74622e-010 -3.18055e-015 8.94531e-016
Spine 49.2359 -2.35168 2.60973
Spine1 -15.158 -0.625437 -12.8991
HEad -65.3905 2.20695 10.0595
LeftShoulder1 0 -2.69403e-036 -1.28585e-037
LeftArm 16.542 -11.1822 -83.0688
LeftForeArm 5.28766 -34.0218 23.3791
LeftHand -3.20901 -0.574511 40.0408
RightShoulder -2.48481e-017 0 -8.08114e-019
RightArm -5.32952 36.7212 96.4196
RightForeArm 18.1387 0.931356 0.212223
RightHand 8.38319 -21.0483 -43.6867
LeftUpLeg -45.43976237 -6.862335907 8.875325775
LeftLeg 107.3757342 0 0
LeftFoot 7.314619624 -28.31534761 0.3634651
LeftToes 4.94765e-010 2.02697e-011 4.00889e-011
225
root 134.3139014 19.9432 -84.43903887 40.1800894 55.1021844 -9.531263394
RightUpLeg -37.00989184 5.700196905 -9.670010612
RightLeg 105.5842575 2.240410119 -3.723725443
RightFoot -14.01104904 14.1821049 -4.018168222
RightToes 1.74622e-010 -3.18055e-015 8.94531e-016
Spine 49.0031 -2.58627 3.83413
Spine1 -15.3289 -0.312153 -12.8053
HEad -64.6113 2.68247 9.07747
LeftShoulder1 0 -2.69403e-036 -1.28585e-037
LeftArm 14.5925 -20.0378 -81.2014
LeftForeArm 5.74065 -35.3104 24.0342
LeftHand -2.97679 -0.394972 38.4478
RightShoulder -2.48481e-017 0 -8.08114e-019
RightArm -5.54418 34.4587 98.077
RightForeArm 19.9798 -0.0959086 0.372567
RightHand 8.64726 -21.2425 -44.6303
LeftUpLeg -42.6272475 -7.059964115 9.227918916
LeftLeg 104.1480942 0 0
LeftFoot 5.650932898 -28.87592338 -0.6621387033
LeftToes 4.94765e-010 2.02697e-011 4.00889e-011
226
root 135.0756506 19.9367 -83.9381908 39.74851543 55.39323142 -10.52818678
RightUpLeg -43.25842756 5.798053796 -9.589017485
RightLeg 113.4077524 2.711280257 -3.823210001
RightFoot -16.75954082 14.8408261 -5.519834111
RightToes 1.74622e-010 -3.18055e-015 8.94531e-016
Spine 48.7289 -2.37773 4.36932
Spine1 -15.881 0.0305705 -11.7456
HEad -64.1844 3.32282 7.79427
LeftShoulder1 0 -2.69403e-036 -1.28585e-037
LeftArm 13.3422 -30.3256 -79.6257
LeftForeArm 4.38845 -32.9554 22.8245
LeftHand -2.68083 -0.164951 36.2811
RightShoulder -2.48481e-017 0 -8.08114e-019
RightArm -5.9682 32.1169 98.8328
RightForeArm 22.063 -0.190785 0.631628
RightHand 8.96594 -21.488 -45.6884
LeftUpLeg -40.84439912 -7.312503704 9.666240114
LeftLeg 100.3802897 0 0
LeftFoot 5.099325237 -28.0558195 -2.714223884
LeftToes 4.94765e-010 2.02697e-011 4.00889e-011
227
root 135.8588205 19.8887 -83.42350201 39.54157401 56.70082607 -10.79406266
RightUpLeg -49.5759645 4.976370158 -9.229399485
RightLeg 120.6342687 2.512970543 -2.784841521
RightFoot -21.26920288 15.47162512 -7.542317466
RightToes 1.74622e-010 -3.18055e-015 8.94531e-016
Spine 48.6547 -2.24852 4.48013
Spine1 -15.8625 0.0957236 -8.5326
HEad -64.2026 4.42438 6.21879
LeftShoulder1 0 -2.69403e-036 -1.28585e-037
LeftArm 13.1592 -40.7105 -77.9268
LeftForeArm 1.51832 -27.2078 20.1817
LeftHand -2.49568 -0.0394953 34.7281
RightShoulder -2.48481e-017 0 -8.08114e-019
RightArm -5.96793 30.3191 99.0636
RightForeArm 23.9803 0.373363 1.22911
RightHand 9.22942 -21.6896 -46.5336
LeftUpLeg -39.01555223 -8.433413052 10.38770043
LeftLeg 95.93247621 0 0
LeftFoot 5.31012541 -27.03074234 -3.829331096
LeftToes 4.94765e-010 2.02697e-011 4.00889e-011
228
root 136.6278862 19.8335 -82.94305934 38.99364678 58.93002372 -10.42690666
RightUpLeg -55.26473949 3.183766946 -8.683429081
RightLeg 127.0648725 1.274645226 -0.723394155
RightFoot -26.20161806 16.10122474 -9.536546513
RightToes 1.74622e-010 -3.18055e-015 8.94531e-016
Spine 49.0903 -2.63879 4.66449
Spine1 -15.0541 -0.364449 -3.82385
HEad -64.316 5.65168 4.636
LeftShoulder1 0 -2.69403e-036 -1.28585e-037
LeftArm 2.68053 -50.0561 -74.4385
LeftForeArm 8.693 -20.1675 12.3892
LeftHand -2.24411 0.139727 32.5504
RightShoulder -2.48481e-017 0 -8.08114e-019
RightArm -5.35183 28.9667 99.5643
RightForeArm 25.6965 1.15246 1.69742
RightHand 9.42447 -21.8365 -47.148
LeftUpLeg -36.33691488 -10.98616144 11.43267514
LeftLeg 91.60640269 0 0
LeftFoot 6.489364714 -28.1551539 -3.460404354
LeftToes 4.94765e-010 2.02697e-011 4.00889e-011
